Coordinates
version=1
nRows=6
nColumns=36
inDegrees=yes

Units are S.I. units (second, meters, Newtons, ...)
If the header above contains a line with 'inDegrees', this indicates whether rotational values are in degrees (yes) or radians (no).

endheader
time	pelvis_tilt	pelvis_list	pelvis_rotation	pelvis_tx	pelvis_ty	pelvis_tz	hip_flexion_r	hip_adduction_r	hip_rotation_r	knee_angle_r	knee_angle_r_beta	ankle_angle_r	subtalar_angle_r	mtp_angle_r	hip_flexion_l	hip_adduction_l	hip_rotation_l	knee_angle_l	knee_angle_l_beta	ankle_angle_l	subtalar_angle_l	mtp_angle_l	lumbar_extension	lumbar_bending	lumbar_rotation	arm_flex_r	arm_add_r	arm_rot_r	elbow_flex_r	pro_sup_r	arm_flex_l	arm_add_l	arm_rot_l	elbow_flex_l	pro_sup_l
      1.96666670	      4.77451400	      0.30766861	     10.21532733	      0.58608995	      0.93918381	     -0.19719418	     47.12535145	     -5.38821976	      4.23504122	     25.40627407	      0.44342313	     -0.14558842	     -0.69814087	     -7.49999980	      3.94687762	      4.18602365	     -4.52553369	     23.37490040	      0.40796897	     13.03202401	    -13.71620583	     -7.49999980	    -13.37256578	     -8.26804959	      2.24645800	     40.07710747	      6.62431820	     54.60945062	    126.21020739	     98.67277066	     37.10436535	     -3.56883073	     63.17286483	    123.26241085	    100.01061591
      1.98333330	      4.75596709	      0.52361831	     10.32291107	      0.58634112	      0.93600364	     -0.19726000	     47.32779501	     -5.65869955	      4.37082798	     25.73321511	      0.44912933	     -0.42249872	     -1.05168338	     -7.49999981	      4.63080467	      4.52488671	     -4.05399297	     24.60042620	      0.42935843	     13.30181558	    -14.65827047	     -7.49999981	    -13.46584782	     -8.61543645	      2.15337212	     40.11494291	      6.54978995	     54.99076486	    126.49253188	     96.73400631	     37.12709694	     -3.60044047	     63.31487615	    122.85742822	     97.72395293
      2.00000000	      4.87800530	      0.87117163	     10.35577775	      0.58608189	      0.93429952	     -0.19693898	     47.28570934	     -5.92474811	      4.62094744	     25.88891065	      0.45184673	     -0.70562634	     -1.10880273	     -7.49999981	      4.99289404	      4.95261700	     -3.87634915	     25.58203377	      0.44649072	     13.96684357	    -14.68973208	     -7.49999981	    -13.78740427	     -8.99572495	      2.19368264	     40.19055713	      6.54267531	     55.09660758	    126.70651959	     95.47201348	     37.10730797	     -3.72742604	     63.30306102	    123.10097847	     96.30514293
      2.01666670	      5.02945292	      1.15681640	     10.36351583	      0.59100860	      0.93417680	     -0.19996279	     47.02863021	     -6.18531142	      4.73626197	     25.92287554	      0.45243953	     -0.93005064	     -1.15195693	     -7.49999981	      5.00142662	      5.37816381	     -3.41193597	     26.21846171	      0.45759848	     14.56363510	    -15.01118181	     -7.49999981	    -13.94552767	     -9.24511226	      2.21823406	     40.16648972	      6.47559400	     55.32838338	    126.74981383	     95.65803435	     36.94937777	     -3.57874113	     63.41617473	    123.09667953	     96.46957846
      2.03333330	      5.24851783	      1.50667776	     10.43224545	      0.59051157	      0.93426484	     -0.19938499	     46.60462801	     -6.49012196	      4.77491434	     25.70224796	      0.44858885	     -1.48176509	     -1.34526915	     -7.49999983	      4.88380492	      5.81779429	     -3.09295165	     26.66683460	      0.46542406	     14.88469358	    -15.07951117	     -7.49999983	    -14.34111251	     -9.55715073	      2.30395339	     40.21434865	      6.36998563	     55.40474622	    126.66283288	     99.52022741	     36.79889926	     -3.48376790	     63.25392801	    123.23399531	    100.11209803
      2.05000000	      5.38962897	      2.03949938	     10.62876568	      0.58656592	      0.93343485	     -0.19659811	     46.31711079	     -6.99562442	      4.82705520	     25.30506878	      0.44165677	     -2.20753416	     -1.08667540	     -7.49999983	      4.97879021	      6.43002997	     -2.83364271	     27.16376030	      0.47409705	     15.13459083	    -15.08157119	     -7.49999983	    -14.83414144	    -10.12089911	      2.37499894	     40.25215102	      6.30122007	     55.40615262	    126.35978613	     99.51640208	     36.89624401	     -3.53907200	     63.27012640	    123.21435935	    100.12330240
